<svg width="53" height="66" viewBox="0 0 53 66" fill="none" xmlns="http://www.w3.org/2000/svg">
<g id="content_cut">
<mask id="mask0_2_8" style="mask-type:alpha" maskUnits="userSpaceOnUse" x="0" y="0" width="53" height="66">
<rect id="Bounding box" x="1.05964" y="65.8228" width="65" height="51" transform="rotate(-90.9341 1.05964 65.8228)" fill="#D9D9D9"/>
</mask>
<g mask="url(#mask0_2_8)">
<path id="content_cut_2" d="M44.8398 13.6438L30.2759 32.8421L35.3727 39.1244C35.898 38.7547 36.4605 38.4972 37.0603 38.352C37.6601 38.2068 38.261 38.1293 38.863 38.1195C41.2002 38.0814 43.2183 39.1094 44.9172 41.2035C46.6162 43.2976 47.4899 45.834 47.5385 48.8128C47.5871 51.7916 46.7965 54.3552 45.1667 56.5035C43.5369 58.6519 41.5534 59.7452 39.2163 59.7833C36.8791 59.8214 34.861 58.7934 33.162 56.6993C31.4631 54.6052 30.5893 52.0687 30.5408 49.0899C30.5283 48.3227 30.5689 47.5546 30.6626 46.7856C30.7563 46.0166 30.9393 45.2913 31.2116 44.6097L26.1147 38.3273L21.2254 44.7725C21.5197 45.4449 21.7263 46.1638 21.845 46.9293C21.9638 47.6949 22.0294 48.4612 22.0419 49.2285C22.0905 52.2073 21.2999 54.7709 19.6701 56.9192C18.0403 59.0676 16.0568 60.1609 13.7196 60.199C11.3825 60.2371 9.36438 59.2091 7.66544 57.115C5.96649 55.0209 5.09273 52.4844 5.04416 49.5056C4.9956 46.5269 5.7862 43.9633 7.41598 41.8149C9.04576 39.6665 11.0292 38.5733 13.3664 38.5352C13.9684 38.5254 14.5715 38.5833 15.1757 38.7088C15.78 38.8344 16.3506 39.0734 16.8877 39.4258L42.5827 5.55451L44.7074 5.51987L44.8398 13.6438ZM23.7693 24.8221L19.6081 30.3073L6.59491 14.2673L6.46245 6.14343L8.58717 6.10879L23.7693 24.8221ZM17.7925 49.2978C17.7682 47.8084 17.3313 46.5402 16.4818 45.4931C15.6324 44.4461 14.6233 43.9321 13.4547 43.9511C12.2861 43.9702 11.2944 44.5168 10.4795 45.591C9.66462 46.6652 9.26932 47.947 9.2936 49.4364C9.31788 50.9257 9.75476 52.194 10.6042 53.241C11.4537 54.2881 12.4627 54.8021 13.6313 54.783C14.7999 54.764 15.7917 54.2173 16.6066 53.1432C17.4215 52.069 17.8168 50.7872 17.7925 49.2978ZM27.0888 32.8941C27.0829 32.533 26.9715 32.2188 26.7546 31.9515C26.5377 31.6841 26.2876 31.5528 26.0044 31.5574C25.7211 31.562 25.4754 31.7015 25.2673 31.9757C25.0593 32.25 24.9582 32.5676 24.9641 32.9287C24.97 33.2898 25.0813 33.604 25.2982 33.8713C25.5151 34.1386 25.7652 34.27 26.0485 34.2654C26.3318 34.2608 26.5775 34.1213 26.7855 33.847C26.9936 33.5728 27.0947 33.2551 27.0888 32.8941ZM43.2891 48.8821C43.2648 47.3927 42.8279 46.1245 41.9784 45.0774C41.129 44.0304 40.1199 43.5164 38.9513 43.5354C37.7827 43.5545 36.791 44.1011 35.9761 45.1753C35.1612 46.2495 34.7659 47.5313 34.7902 49.0207C34.8145 50.51 35.2514 51.7783 36.1008 52.8253C36.9503 53.8724 37.9594 54.3864 39.1279 54.3673C40.2965 54.3483 41.2883 53.8016 42.1032 52.7275C42.9181 51.6533 43.3134 50.3715 43.2891 48.8821Z" fill="#E0D6FF"/>
</g>
</g>
</svg>
